Coordinates
version=1
nRows=14
nColumns=40
inDegrees=yes

Units are S.I. units (second, meters, Newtons, ...)
If the header above contains a line with 'inDegrees', this indicates whether rotational values are in degrees (yes) or radians (no).

endheader
time	pelvis_tilt	pelvis_list	pelvis_rotation	pelvis_tx	pelvis_ty	pelvis_tz	hip_flexion_r	hip_adduction_r	hip_rotation_r	knee_angle_r	knee_angle_r_beta	ankle_angle_r	subtalar_angle_r	mtp_angle_r	hip_flexion_l	hip_adduction_l	hip_rotation_l	knee_angle_l	knee_angle_l_beta	ankle_angle_l	subtalar_angle_l	mtp_angle_l	lumbar_extension	lumbar_bending	lumbar_rotation	arm_flex_r	arm_add_r	arm_rot_r	elbow_flex_r	pro_sup_r	wrist_flex_r	wrist_dev_r	arm_flex_l	arm_add_l	arm_rot_l	elbow_flex_l	pro_sup_l	wrist_flex_l	wrist_dev_l
      0.26000000	      5.46355503	     -0.61032518	      0.41312376	      0.10375932	      0.94673341	     -0.24760141	      6.19636725	      3.46756267	    -16.51038829	     13.25843008	      0.23140326	     -0.39483902	      0.00000000	      0.00000000	     -3.27019718	     -2.14504024	     -3.11026562	     53.11996397	      0.92711827	     -1.36564396	      0.00000000	      0.00000000	    -13.13258477	      2.76938216	     -3.30932798	     -7.60798804	      4.44532772	    -13.17132857	     38.98647387	     85.42488771	      7.97097520	      8.34115655	     -3.25302432	      0.04748201	      1.22520089	     46.03502810	     87.23318579	     -2.67344329	     15.77443014
      0.27000000	      5.74332067	     -0.44546043	      0.43092041	      0.10990508	      0.94762277	     -0.24597463	      5.40884825	      3.43480457	    -16.39080275	     13.11975866	      0.22898299	     -0.19633768	      0.00000000	      0.00000000	     -2.20688949	     -2.24244335	     -2.60265741	     55.29614415	      0.96509978	     -0.91997506	      0.00000000	      0.00000000	    -13.64618686	      2.48336367	     -2.80665047	     -7.19056893	      4.38412176	    -12.93059986	     38.97859631	     85.47604020	      8.01928723	      8.35379164	     -3.33397072	     -0.04461930	      1.15740293	     45.63442156	     87.26122478	     -2.66277371	     15.82904841
      0.28000000	      5.18856290	     -1.05900200	      1.18705123	      0.11623027	      0.94724426	     -0.24499799	      5.43063877	      4.18300620	    -17.16089863	     12.77084182	      0.22289324	     -0.29776091	      0.00000000	      0.00000000	      0.03815846	     -3.15337208	     -1.23184420	     57.86662537	      1.00996314	      0.36658626	      0.00000000	      0.00000000	    -13.11638932	      3.19270719	     -2.77897212	     -7.05160407	      4.19982068	    -12.64033737	     39.21053063	     85.36613711	      7.97356659	      8.40841268	     -3.46327697	     -0.13072253	      1.33417417	     45.03685062	     87.38341011	     -2.59867983	     16.26937081
      0.29000000	      4.90143464	     -1.20643780	      1.52027054	      0.12236429	      0.94733805	     -0.24366704	      5.21555962	      4.46023477	    -17.40280092	     12.52657443	      0.21862997	     -0.17603794	      0.00000000	      0.00000000	      1.81860640	     -3.49557495	     -0.31474952	     59.82671064	      1.04417308	      1.62385992	      0.00000000	      0.00000000	    -12.91990879	      3.29622642	     -2.48242509	     -6.75900100	      4.06319165	    -12.33822006	     39.28827848	     85.31844146	      7.95361860	      8.52812630	     -3.58470068	     -0.22931740	      1.35447757	     44.53311605	     87.41906728	     -2.53539887	     16.57015746
      0.30000000	      5.04759639	     -1.02674953	      1.52629415	      0.12816476	      0.94818838	     -0.24193516	      4.54593112	      4.42871285	    -17.32727052	     12.28716168	      0.21445143	     -0.01635453	      0.00000000	      0.00000000	      2.97724144	     -3.48831177	      0.18224138	     61.22151734	      1.06851705	      2.69741207	      0.00000000	      0.00000000	    -13.32647940	      2.98369314	     -1.94860230	     -6.28248745	      3.98259803	    -12.12512187	     39.30012457	     85.36925482	      7.98545578	      8.58381736	     -3.62336311	     -0.35320649	      1.21907111	     44.13385703	     87.42613954	     -2.54805839	     16.63916665
      0.31000000	      4.83721880	     -1.24635825	      1.81889962	      0.13440968	      0.94841210	     -0.24053185	      4.15140208	      4.82611300	    -17.41126479	     11.83229627	      0.20651253	      0.03655833	      0.00000000	      0.00000000	      4.51561059	     -3.83223751	      1.05949832	     62.47274005	      1.09035501	      4.62052923	      0.00000000	      0.00000000	    -13.18683142	      3.15787524	     -1.58913830	     -6.04087366	      3.82746917	    -11.84586937	     39.53020235	     85.38630090	      7.98617082	      8.72165310	     -3.77321704	     -0.41825522	      1.13971626	     43.65742048	     87.52408917	     -2.57124078	     16.90654331
      0.32000000	      4.47935291	     -1.45221092	      2.03468973	      0.14054437	      0.94850649	     -0.23901276	      3.94760771	      5.19792493	    -17.71776540	     11.39913380	      0.19895242	     -0.03151727	      0.00000000	      0.00000000	      6.21608148	     -4.16925123	      1.74988382	     63.45626310	      1.10752072	      6.22629958	      0.00000000	      0.00000000	    -12.86768109	      3.28427461	     -1.17494584	     -5.73823592	      3.70800684	    -11.70688191	     39.64116170	     85.35801625	      7.94573317	      8.94446707	     -3.92921035	     -0.47757218	      1.02435475	     43.16668953	     87.57838409	     -2.57931821	     17.26530993
      0.33000000	      3.92600838	     -1.65745004	      2.22067657	      0.14654068	      0.94833557	     -0.23748316	      3.99272215	      5.54595783	    -17.97298218	     11.04263849	      0.19273040	     -0.05491277	      0.00000000	      0.00000000	      8.13030191	     -4.46636213	      2.41313224	     64.17788950	      1.12011548	      7.62353274	      0.00000000	      0.00000000	    -12.33176161	      3.39481747	     -0.71421824	     -5.45045410	      3.58379030	    -11.62270548	     39.74730586	     85.30119627	      7.92216833	      9.34426531	     -4.08019838	     -0.53586675	      0.87991777	     42.70341158	     87.62317099	     -2.46206670	     17.84340634
      0.34000000	      3.85359564	     -1.55604156	      2.23108726	      0.15263313	      0.94884719	     -0.23581154	      3.45165409	      5.61592595	    -17.94605586	     10.59830843	      0.18497538	      0.06878634	      0.00000000	      0.00000000	      9.27698093	     -4.43912692	      2.79523117	     64.25897096	      1.12153062	      9.05252924	      0.00000000	      0.00000000	    -12.36988108	      3.15906062	     -0.18057380	     -5.09374906	      3.49712846	    -11.51917114	     39.90398592	     85.33929471	      7.94975815	      9.44734415	     -4.23530453	     -0.62910127	      0.63590953	     42.35995472	     87.63873515	     -2.45092763	     18.01379577
      0.35000000	      3.46749304	     -1.69001914	      2.22833184	      0.15876739	      0.94884183	     -0.23415249	      3.24962362	      5.92884320	    -17.91990770	     10.12109014	      0.17664635	      0.05348147	      0.00000000	      0.00000000	     10.79114184	     -4.65145398	      3.15012285	     64.20503836	      1.12058932	     10.35678278	      0.00000000	      0.00000000	    -12.01177465	      3.15493282	      0.43906270	     -4.82942209	      3.37611457	    -11.50195291	     40.10382143	     85.34728825	      7.98877719	      9.77273620	     -4.42826546	     -0.65728127	      0.32590317	     42.02845650	     87.70660534	     -2.27385943	     18.60493491
      0.36000000	      3.37559680	     -1.57586174	      2.21973402	      0.16494354	      0.94923959	     -0.23254115	      2.71424020	      5.98139250	    -17.94757085	      9.66140554	      0.16862334	      0.18973343	      0.00000000	      0.00000000	     11.83674066	     -4.57061785	      3.42121741	     63.66254893	      1.11112109	     11.43519338	      0.00000000	      0.00000000	    -12.00398738	      2.89803067	      0.98444127	     -4.49660134	      3.28826259	    -11.45460872	     40.29448592	     85.38186391	      8.00247308	      9.82185610	     -4.61990383	     -0.74130413	      0.05453454	     41.77335005	     87.69901846	     -2.27657612	     18.72126408
      0.37000000	      3.22904229	     -1.52948990	      2.17407116	      0.17121496	      0.94948819	     -0.23093112	      2.23677508	      6.10639295	    -17.92867106	      9.20380211	      0.16063665	      0.28583626	      0.00000000	      0.00000000	     12.86595125	     -4.55176053	      3.62900951	     62.83154712	      1.09661737	     12.32188609	      0.00000000	      0.00000000	    -11.90072683	      2.71024348	      1.53569853	     -4.18783846	      3.19842545	    -11.43281213	     40.52695012	     85.41045514	      8.00444624	      9.86222133	     -4.86269189	     -0.81015215	     -0.23350819	     41.55412579	     87.70975951	     -2.28910438	     18.85422622
      0.38000000	      3.05844175	     -1.51113831	      2.11988356	      0.17746823	      0.94962096	     -0.22937280	      1.79896227	      6.25214303	    -17.89255413	      8.77419209	      0.15313854	      0.39272018	      0.00000000	      0.00000000	     13.86786167	     -4.55184987	      3.77322555	     61.74303397	      1.07761923	     12.98371470	      0.00000000	      0.00000000	    -11.76879110	      2.55522303	      2.09069942	     -3.88187831	      3.09458470	    -11.42242606	     40.78401296	     85.43176405	      8.00229766	      9.88847998	     -5.11235821	     -0.87252233	     -0.52148438	     41.38584684	     87.71741769	     -2.30443774	     18.97583062
      0.39000000	      2.86180220	     -1.49396282	      2.04857124	      0.18374447	      0.94961566	     -0.22787949	      1.38640556	      6.39882216	    -17.82186492	      8.34376339	      0.14562614	      0.51149408	      0.00000000	      0.00000000	     14.82962567	     -4.53677435	      3.83787770	     60.42553798	      1.05462459	     13.51272941	      0.00000000	      0.00000000	    -11.60342081	      2.40659761	      2.64959984	     -3.58833126	      2.98550656	    -11.41552248	     41.06895724	     85.44289176	      8.00021464	      9.90145056	     -5.37420412	     -0.91793656	     -0.82292833	     41.23730563	     87.72565527	     -2.31921303	     19.08980367
